Coordinates
version=1
nRows=17
nColumns=23
inDegrees=yes

Units are S.I. units (second, meters, Newtons, ...)
If the header above contains a line with 'inDegrees', this indicates whether rotational values are in degrees (yes) or radians (no).

endheader
time	pelvis_tilt	pelvis_list	pelvis_rotation	pelvis_tx	pelvis_ty	pelvis_tz	hip_flexion_r	hip_adduction_r	hip_rotation_r	knee_angle_r	knee_angle_r_beta	ankle_angle_r	subtalar_angle_r	mtp_angle_r	hip_flexion_l	hip_adduction_l	hip_rotation_l	knee_angle_l	knee_angle_l_beta	ankle_angle_l	subtalar_angle_l	mtp_angle_l
      0.00000000	     -8.56199611	     -4.45079313	     -1.87707589	      2.51236554	      0.96044847	      1.00099227	     30.37844758	      6.91729795	    -11.05459743	      5.55436858	      0.09694202	     10.80523315	     -0.27764588	      0.00000000	    -14.33237865	     -8.63376945	    -15.11568035	     39.40103156	      0.68767773	     -9.37378586	     -5.97605608	      0.00000000
      0.00666667	     -7.97234056	     -4.63868519	     -1.93877941	      2.51198773	      0.95792096	      1.00201804	     29.54978763	      7.27983440	    -10.89214650	      5.69920413	      0.09946988	     10.93179168	     -0.25705198	      0.00000000	    -13.91942458	     -9.10278198	    -14.46243405	     43.31491547	      0.75598789	     -8.97466481	     -7.88661725	      0.00000000
      0.01333333	     -7.33698480	     -4.87570535	     -2.04115243	      2.51157156	      0.95524083	      1.00299183	     28.75930504	      7.67144718	    -10.82262080	      6.10076545	      0.10647844	     11.14350917	     -0.15666842	      0.00000000	    -13.64769497	     -9.50164786	    -13.77043643	     47.02860457	      0.82080399	     -8.66675374	     -9.75708125	      0.00000000
      0.02000000	     -6.81937596	     -5.07919769	     -2.12432401	      2.51097796	      0.95219175	      1.00388320	     28.32030918	      7.91579764	    -11.25525924	      7.11512010	      0.12418227	     11.49038677	      0.40680604	      0.00000000	    -13.22717743	     -9.73220868	    -12.84460042	     50.64225432	      0.88387408	     -8.55475235	    -11.96899108	      0.00000000
      0.02666667	     -6.05976263	     -5.49616626	     -2.23100943	      2.51047347	      0.94911710	      1.00475044	     27.53314882	      8.39824701	    -11.45424086	      8.15212718	      0.14228146	     11.41520470	      0.26438813	      0.00000000	    -13.11523764	    -10.24461935	    -12.27853680	     54.19602324	      0.94589905	     -8.30596534	    -13.50050899	      0.00000000
      0.03333333	     -5.59652413	     -5.74149406	     -2.36853036	      2.50960611	      0.94525445	      1.00564073	     27.60825899	      8.43937368	    -12.88187820	     10.57777033	      0.18461692	     11.86540770	      1.58401681	      0.00000000	    -12.55137291	    -10.47457660	    -11.48763225	     57.78146233	      1.00847676	     -8.34499925	    -15.38518662	      0.00000000
      0.04000000	     -4.68673318	     -6.31482500	     -2.53443089	      2.50894517	      0.94164756	      1.00642799	     26.82488994	      8.96260033	    -13.28227798	     12.44789568	      0.21725676	     11.27894344	      1.05757363	      0.00000000	    -12.53126854	    -11.13253140	    -11.13658277	     61.28705450	      1.06966089	     -8.18643423	    -16.66905017	      0.00000000
      0.04666667	     -4.19235278	     -6.60132985	     -2.71530994	      2.50785365	      0.93693292	      1.00715826	     27.11702802	      8.75862430	    -15.22420369	     15.95921450	      0.27854084	     11.54662568	      2.64556006	      0.00000000	    -11.85997419	    -11.41720663	    -10.52887445	     64.89643197	      1.13265641	     -8.20230534	    -18.14436688	      0.00000000
      0.05333333	     -3.29281897	     -7.21956401	     -2.92273346	      2.50682699	      0.93253331	      1.00778615	     26.51802482	      9.16742791	    -15.69569818	     18.64797305	      0.32546853	     10.71302902	      1.69575103	      0.00000000	    -11.65997404	    -12.12509820	    -10.26798313	     68.41949591	      1.19414548	     -8.08927466	    -19.24950182	      0.00000000
      0.06000000	     -2.78157168	     -7.59841207	     -3.19620300	      2.50546999	      0.92728805	      1.00828491	     26.58426419	      9.17426536	    -16.40331772	     22.08696112	      0.38549019	     10.29489187	      1.40264944	      0.00000000	    -10.86842198	    -12.49245737	     -9.82596594	     71.99134663	      1.25648603	     -7.99824722	    -20.40263947	      0.00000000
      0.06666667	     -1.85679744	     -8.27039649	     -3.44310356	      2.50403770	      0.92242306	      1.00868264	     25.99636753	      9.58348195	    -16.63179952	     25.18781015	      0.43961022	      9.72639025	      0.30852951	      0.00000000	    -10.52818143	    -13.24544252	     -9.60912306	     75.46130083	      1.31704816	     -7.76240766	    -21.29195470	      0.00000000
      0.07333333	     -0.99746333	     -8.96433288	     -3.74897025	      2.50240546	      0.91735830	      1.00909163	     25.46812868	     10.05961324	    -16.61172709	     28.39824479	      0.49564287	      9.48742611	     -0.89457323	      0.00000000	    -10.04823461	    -13.99989156	     -9.39326412	     78.87198058	      1.37657575	     -7.47393382	    -22.10569968	      0.00000000
      0.08000000	     -0.76412062	     -9.28702063	     -4.12303795	      2.50017708	      0.91159902	      1.00945868	     25.69239205	     10.26377824	    -16.13453857	     31.78709379	      0.55478945	      9.84454337	     -2.40442827	      0.00000000	     -8.61448492	    -14.35148068	     -8.96669924	     82.36033145	      1.43745896	     -7.03016377	    -22.75294336	      0.00000000
      0.08666667	     -0.34806868	     -9.74696485	     -4.48486175	      2.49785215	      0.90629740	      1.00985835	     25.55803735	     10.70328507	    -15.47640003	     34.92534947	      0.60956234	     10.52180302	     -3.88228560	      0.00000000	     -7.35028345	    -14.88926036	     -8.59853902	     85.66823140	      1.49519270	     -6.53863974	    -23.27005286	      0.00000000
      0.09333333	     -0.08180823	    -10.13257515	     -4.84258203	      2.49528128	      0.90118898	      1.01031295	     25.45624301	     11.17250085	    -14.62334086	     37.86516136	      0.66087174	     11.65701559	     -5.27207620	      0.00000000	     -5.78490902	    -15.35247314	     -8.11059439	     88.84077977	      1.55056412	     -5.93818382	    -23.59195731	      0.00000000
      0.10000000	     -0.01879264	    -10.38648489	     -5.17283012	      2.49253195	      0.89633371	      1.01080650	     25.40707418	     11.58107666	    -13.68746488	     40.54248006	      0.70759976	     13.10957470	     -6.47489433	      0.00000000	     -3.83292663	    -15.67997127	     -7.46599172	     91.85868565	      1.60323651	     -5.26676041	    -23.73406307	      0.00000000
      0.10666667	     -0.14255002	    -10.50665897	     -5.43430148	      2.48965189	      0.89187235	      1.01130695	     25.35450784	     11.88545356	    -12.77487703	     42.88886786	      0.74855196	     14.75828837	     -7.45804217	      0.00000000	     -1.50667676	    -15.85431059	     -6.63089608	     94.67490714	      1.65238885	     -4.55551647	    -23.72707382	      0.00000000
